<svg width="16" height="14" viewBox="0 0 16 14" fill="none" xmlns="http://www.w3.org/2000/svg">
<path d="M7.4141 2.17527L7.99975 2.90734L8.5854 2.17527C8.64683 2.09849 8.68782 2.04418 8.72009 2.00143C8.7692 1.93635 8.7981 1.89806 8.84808 1.84808C10.3122 0.383973 12.6873 0.383973 14.1514 1.84808C15.6132 3.30982 15.6155 5.67964 14.1585 7.14432L7.99975 12.9676L1.841 7.14432C0.383977 5.67965 0.386338 3.30982 1.84808 1.84808C3.31219 0.383973 5.68731 0.383973 7.15142 1.84808C7.2014 1.89806 7.2303 1.93635 7.27942 2.00143C7.31168 2.04418 7.35267 2.09849 7.4141 2.17527Z" stroke="white" stroke-width="1.5"/>
</svg>
