<svg width="14" height="16" viewBox="0 0 14 16" fill="none" xmlns="http://www.w3.org/2000/svg">
<path d="M11.5 11.0638C10.93 11.0638 10.4163 11.2851 10.0262 11.6413L4.6825 8.52509C4.72375 8.35634 4.75 8.18009 4.75 8.00009C4.75 7.82009 4.72375 7.64384 4.6825 7.47509L9.97 4.38884C10.3713 4.76384 10.9075 4.99634 11.5 4.99634C12.7413 4.99634 13.75 3.98759 13.75 2.74634C13.75 1.50509 12.7413 0.496338 11.5 0.496338C10.2587 0.496338 9.25 1.50509 9.25 2.74634C9.25 2.92634 9.27625 3.10259 9.3175 3.27134L4.03 6.35759C3.62875 5.98259 3.0925 5.75009 2.5 5.75009C1.25875 5.75009 0.25 6.75884 0.25 8.00009C0.25 9.24134 1.25875 10.2501 2.5 10.2501C3.0925 10.2501 3.62875 10.0176 4.03 9.64259L9.37375 12.7588C9.33625 12.9163 9.31375 13.0813 9.31375 13.2501C9.31375 14.4576 10.2925 15.4363 11.5 15.4363C12.7075 15.4363 13.6863 14.4576 13.6863 13.2501C13.6863 12.0426 12.7075 11.0638 11.5 11.0638Z" fill="white"/>
</svg>
